<svg
  xmlns="http://www.w3.org/2000/svg"
  width="139"
  height="387"
  viewBox="0 0 139 387"
  fill="none"
>
  <path
    d="M138.548 114.772L131.448 84.7321C128.568 77.8853 122.469 77.8331 122.469 77.8331C121.799 77.8331 95.6435 69.6154 95.6435 69.6154C94.4061 69.1535 89.3311 65.3837 89.3311 65.3837C90.5686 72.4615 89.3311 86.9597 89.3311 86.9597C88.3147 94.1492 78.4005 115.271 78.4005 115.271L76.8832 98.083C75.9846 95.453 73.2225 90.6029 73.2225 90.6029C74.7398 89.4556 77.3325 86.5425 77.3325 86.5425C77.7302 86.1402 77.3841 85.8049 77.3841 85.8049L71.742 79.5318L85.8398 66.5161C86.7973 65.4358 86.6206 63.4988 86.6206 63.4988C85.9429 59.4533 86.2891 50.7737 86.2891 50.7737C86.6869 46.7133 87.637 42.6156 87.637 42.6156C90.7969 45.2977 91.8723 35.2398 91.8723 35.2398C92.5573 28.5644 90.1782 30.9559 90.1782 30.9559C90.6938 20.8459 90.1782 16.7482 90.1782 16.7482C87.4676 6.63821 82.4074 5.61007 82.4074 5.61007C80.8754 3.72515 75.2996 1.33361 75.2996 1.33361C72.3533 -0.0148941 70.2983 0.0819621 69.8269 0.126663C69.3481 0.0819621 67.3079 -0.0148941 64.3616 1.33361C64.3616 1.33361 58.7785 3.72515 57.2538 5.61007C57.2538 5.61007 52.1788 6.63821 49.483 16.7482C49.483 16.7482 48.9674 20.8608 49.483 30.9559C49.483 30.9559 47.1186 28.5644 47.7889 35.2398C47.7889 35.2398 48.8643 45.3052 52.0242 42.6156C52.0242 42.6156 52.9891 46.7282 53.3721 50.7737C53.3721 50.7737 53.7109 59.4533 53.0406 63.4988C53.0406 63.4988 52.8712 65.4358 53.8214 66.5161L67.9192 79.5318L62.2771 85.8049C62.2771 85.8049 61.9383 86.1402 62.3361 86.5425C62.3361 86.5425 64.9361 89.4556 66.4534 90.6029C66.4534 90.6029 63.6913 95.453 62.7854 98.083L61.2754 115.271C61.2754 115.271 51.3539 94.1492 50.3374 86.9597C50.3374 86.9597 49.0926 72.4615 50.3374 65.3837C50.3374 65.3837 45.2625 69.1461 44.0324 69.6154C44.0324 69.6154 17.8697 77.8331 17.1994 77.8331C17.1994 77.8331 11.1007 77.8778 8.22806 84.7321C8.22806 84.7321 2.98372 99.7965 0.950806 114.697V114.772L10.865 217.355C10.865 217.355 10.9681 233.969 29.8757 233.969L38.4198 374.108C38.4198 374.108 38.6187 382.818 45.3509 385.634C45.3509 385.634 59.9201 390.596 61.9383 374.339L65.0982 233.969H74.4452L77.605 374.339C79.6232 390.596 94.1998 385.634 94.1998 385.634C100.917 382.818 101.124 374.108 101.124 374.108L109.675 233.969C128.575 233.969 128.686 217.355 128.686 217.355L138.548 114.772Z"
    fill="#022135"
  />
</svg>