<svg
              xmlns="http://www.w3.org/2000/svg"
              width="188"
              height="350"
              viewBox="0 0 188 233"
              fill="none"
            >
              <mask
                id="mask0_108_96"
                className="mask-type:luminance"
                maskUnits="userSpaceOnUse"
                x="0"
                y="0"
                width="189"
                height="233"
              >
                <path
                  d="M0 0.282227H188.008V232.969H0V0.282227Z"
                  fill="white"
                />
              </mask>
              <g mask="url(#mask0_108_96)">
                <path
                  d="M50.6978 61.7171C52.1414 58.2601 55.2203 58.2378 55.2203 58.2378C55.5517 58.2378 68.7362 54.0954 68.7362 54.0954C69.3623 53.8645 71.9182 51.9646 71.9182 51.9646C71.2921 55.5259 71.9182 62.8421 71.9182 62.8421C72.4338 66.4629 77.4203 77.1019 77.4203 77.1019L78.1863 68.4447C78.6356 67.1185 80.0277 64.6823 80.0277 64.6823C79.2617 64.1086 77.958 62.6334 77.958 62.6334C77.7591 62.4323 77.9212 62.2684 77.9212 62.2684L80.757 59.1095L73.6638 52.5532C73.1851 52.0019 73.2661 51.0259 73.2661 51.0259C73.6123 48.9771 73.4355 44.6112 73.4355 44.6112C73.2366 42.5698 72.7579 40.4987 72.7579 40.4987C71.1669 41.8621 70.6218 36.781 70.6218 36.781C70.2756 33.4134 71.4689 34.6204 71.4689 34.6204C71.2184 29.5318 71.4689 27.4607 71.4689 27.4607C72.8315 22.3721 75.38 21.8506 75.38 21.8506C76.1461 20.9119 78.9597 19.69 78.9597 19.69C80.4476 19.012 81.4788 19.0567 81.7218 19.0791C81.9649 19.0567 82.9961 19.012 84.484 19.69C84.484 19.69 87.2976 20.897 88.0637 21.8506C88.0637 21.8506 90.6122 22.3721 91.9748 27.4607C91.9748 27.4607 92.24 29.5244 91.9748 34.6204C91.9748 34.6204 93.1681 33.4134 92.8366 36.781C92.8366 36.781 92.2915 41.8472 90.7006 40.4987C90.7006 40.4987 90.2144 42.5698 90.0156 44.6112C90.0156 44.6112 89.8535 48.9771 90.185 51.0259C90.185 51.0259 90.2734 52.0019 89.7872 52.5532L82.6941 59.1095L85.5299 62.2684C85.5299 62.2684 85.6993 62.4323 85.5004 62.6334C85.5004 62.6334 84.1893 64.1012 83.4307 64.6823C83.4307 64.6823 84.8154 67.1334 85.2721 68.4447L86.0307 77.1019C86.0307 77.1019 91.032 66.4629 91.5476 62.8421C91.5476 62.8421 92.1737 55.5408 91.5476 51.9646C91.5476 51.9646 94.0961 53.8645 94.7296 54.0954C94.7296 54.0954 98.5892 55.3024 102.176 56.4199L99.1342 69.3238L105.064 130.833C105.064 130.833 105.086 133.441 106.61 135.981C105.38 136.54 103.819 136.89 101.874 136.89L97.5653 207.497C97.5653 207.497 97.4549 211.878 94.0814 213.301C94.0814 213.301 86.7305 215.804 85.7214 207.608L84.1304 136.89H79.4238L77.8402 207.608C76.8237 215.804 69.4801 213.301 69.4801 213.301C66.092 211.878 65.9962 207.497 65.9962 207.497L61.6873 136.89C52.1635 136.89 52.112 128.524 52.112 128.524L47.1328 76.8486L50.6978 61.7171ZM0.184204 83.6358L4.23531 125.67C4.23531 125.67 4.2795 132.472 12.0208 132.472L15.5268 189.892C15.5268 189.892 15.6079 193.468 18.3626 194.623C18.3626 194.623 24.3361 196.657 25.1611 189.989L26.4574 132.472H30.2876L31.5839 189.989C32.4089 196.642 38.3824 194.623 38.3824 194.623C41.1372 193.468 41.2182 189.892 41.2182 189.892L44.7242 132.472C46.3152 132.472 47.5821 132.189 48.5838 131.735C47.339 129.664 47.3317 127.548 47.3317 127.548L42.5072 77.5266L44.9894 67.0366C42.0652 66.1351 38.9275 65.1516 38.9275 65.1516C38.4192 64.9579 36.3421 63.4232 36.3421 63.4232C36.8577 66.3213 36.3421 72.2592 36.3421 72.2592C35.9297 75.2021 31.8638 83.8593 31.8638 83.8593L31.2377 76.8262C30.8695 75.7459 29.7352 73.7642 29.7352 73.7642C30.3612 73.2948 31.4145 72.1028 31.4145 72.1028C31.5839 71.9389 31.4366 71.7898 31.4366 71.7898L29.1238 69.2195L34.8985 63.8851C35.2888 63.4455 35.2226 62.6483 35.2226 62.6483C34.95 60.9869 35.09 57.4332 35.09 57.4332C35.2447 55.7717 35.6424 54.088 35.6424 54.088C36.9388 55.1906 37.3807 51.0632 37.3807 51.0632C37.6532 48.3289 36.6883 49.3049 36.6883 49.3049C36.9019 45.1625 36.6883 43.4788 36.6883 43.4788C35.5835 39.3364 33.499 38.9267 33.499 38.9267C32.8729 38.1518 30.5896 37.1609 30.5896 37.1609C29.389 36.6171 28.5419 36.6469 28.3504 36.6692C28.1515 36.6469 27.3192 36.6171 26.1113 37.1609C26.1113 37.1609 23.8205 38.1518 23.2018 38.9267C23.2018 38.9267 21.1247 39.3439 20.0125 43.4788C20.0125 43.4788 19.8063 45.1625 20.0125 49.3049C20.0125 49.3049 19.0402 48.3215 19.3201 51.0632C19.3201 51.0632 19.7621 55.1906 21.0584 54.088C21.0584 54.088 21.4562 55.7717 21.6109 57.4332C21.6109 57.4332 21.7508 60.9944 21.4783 62.6483C21.4783 62.6483 21.4046 63.4455 21.8024 63.8851L27.577 69.2195L25.2642 71.7898C25.2642 71.7898 25.1316 71.9314 25.2863 72.1028C25.2863 72.1028 26.3543 73.2948 26.973 73.7642C26.973 73.7642 25.8387 75.7534 25.4778 76.8262L24.8444 83.8593C24.8444 83.8593 20.7785 75.2021 20.3661 72.2592C20.3661 72.2592 19.8578 66.3139 20.3661 63.4232C20.3661 63.4232 18.2889 64.9654 17.7807 65.1516C17.7807 65.1516 7.07108 68.5192 6.79118 68.5192C6.79118 68.5192 4.28687 68.5415 3.10836 71.3503L0.184204 83.6358ZM109.638 130.833C109.638 130.833 109.66 133.441 111.184 135.981C112.65 138.418 115.493 140.802 121.04 140.802L126.166 224.826C126.166 224.826 126.291 230.056 130.32 231.747C130.32 231.747 139.056 234.728 140.271 224.975L142.164 140.802H147.755L149.648 224.975C150.863 234.728 159.599 231.747 159.599 231.747C163.62 230.064 163.753 224.826 163.753 224.826L168.879 140.802C180.208 140.802 180.267 130.841 180.267 130.841L186.211 69.3313V69.294C185.003 60.3611 181.85 51.3239 181.85 51.3239C180.127 47.2114 176.473 47.189 176.473 47.189C176.061 47.189 160.394 42.2644 160.394 42.2644C159.65 41.9887 156.601 39.7313 156.601 39.7313C157.345 43.9705 156.601 52.665 156.601 52.665C155.997 56.9787 150.046 69.6442 150.046 69.6442L149.132 59.3404C148.587 57.761 146.937 54.8628 146.937 54.8628C147.843 54.1699 149.405 52.434 149.405 52.434C149.648 52.1882 149.434 51.987 149.434 51.987L146.061 48.2246L154.509 40.4167C155.084 39.7685 154.981 38.6063 154.981 38.6063C154.575 36.1775 154.782 30.9772 154.782 30.9772C155.025 28.5484 155.592 26.0824 155.592 26.0824C157.485 27.6916 158.133 21.6494 158.133 21.6494C158.538 17.6486 157.117 19.0865 157.117 19.0865C157.419 13.0295 157.117 10.5709 157.117 10.5709C155.496 4.50635 152.447 3.89542 152.447 3.89542C151.541 2.76298 148.189 1.33253 148.189 1.33253C146.422 0.520445 145.199 0.580048 144.904 0.594948C144.624 0.580048 143.387 0.520445 141.619 1.33253C141.619 1.33253 138.275 2.77043 137.362 3.89542C137.362 3.89542 134.32 4.50635 132.699 10.5709C132.699 10.5709 132.39 13.0369 132.699 19.0865C132.699 19.0865 131.271 17.6486 131.683 21.6494C131.683 21.6494 132.331 27.6842 134.224 26.0824C134.224 26.0824 134.799 28.5484 135.042 30.9772C135.042 30.9772 135.241 36.1775 134.843 38.6063C134.843 38.6063 134.74 39.7685 135.314 40.4167L143.763 48.2246L140.389 51.987C140.389 51.987 140.19 52.1882 140.419 52.434C140.419 52.434 141.98 54.1848 142.886 54.8628C142.886 54.8628 141.236 57.761 140.691 59.3404L139.778 69.6442C139.778 69.6442 133.826 56.9787 133.222 52.665C133.222 52.665 132.478 43.9779 133.222 39.7313C133.222 39.7313 130.173 41.9887 129.429 42.2644C129.429 42.2644 113.748 47.189 113.35 47.189C113.35 47.189 109.689 47.2188 107.973 51.3239L106.772 56.4274L103.723 69.3313L109.638 130.833Z"
                  fill="#D7DA5E"
                />
              </g>
            </svg>