<svg
              xmlns="http://www.w3.org/2000/svg"
              width="187"
              height="350"
              viewBox="0 0 187 233"
              fill="none"
            >
              <path
                d="M140.059 76.8486L135.08 128.524C135.08 128.524 135.028 136.89 125.512 136.89L121.195 207.497C121.195 207.497 121.092 211.878 117.711 213.301C117.711 213.301 110.368 215.804 109.351 207.608L107.76 136.89H103.054L101.463 207.608C100.454 215.804 93.1028 213.301 93.1028 213.301C89.7146 211.878 89.6188 207.497 89.6188 207.497L85.3099 136.89C83.3507 136.89 81.8039 136.54 80.5738 135.981C82.0985 133.441 82.1206 130.833 82.1206 130.833L88.0499 69.3238L85.0079 56.4199C88.6097 55.3024 92.4546 54.0954 92.4546 54.0954C93.088 53.8645 95.6366 51.9646 95.6366 51.9646C95.0105 55.5259 95.6366 62.8421 95.6366 62.8421C96.1521 66.4629 101.153 77.1019 101.153 77.1019L101.912 68.4447C102.361 67.1185 103.753 64.6823 103.753 64.6823C102.995 64.1086 101.684 62.6334 101.684 62.6334C101.485 62.4323 101.654 62.2684 101.654 62.2684L104.49 59.1095L97.3969 52.5532C96.9108 52.0019 96.9992 51.0259 96.9992 51.0259C97.3454 48.9771 97.1686 44.6112 97.1686 44.6112C96.9697 42.5698 96.4836 40.4987 96.4836 40.4987C94.8926 41.8621 94.3476 36.781 94.3476 36.781C94.0087 33.4134 95.2093 34.6204 95.2093 34.6204C94.9442 29.5318 95.2093 27.4607 95.2093 27.4607C96.572 22.3721 99.1205 21.8506 99.1205 21.8506C99.8865 20.9119 102.7 19.69 102.7 19.69C104.188 19.012 105.219 19.0567 105.462 19.0791C105.705 19.0567 106.737 19.012 108.224 19.69C108.224 19.69 111.038 20.897 111.804 21.8506C111.804 21.8506 114.353 22.3721 115.715 27.4607C115.715 27.4607 115.966 29.5244 115.715 34.6204C115.715 34.6204 116.909 33.4134 116.562 36.781C116.562 36.781 116.017 41.8472 114.426 40.4987C114.426 40.4987 113.948 42.5698 113.749 44.6112C113.749 44.6112 113.579 48.9771 113.918 51.0259C113.918 51.0259 113.999 52.0019 113.52 52.5532L106.427 59.1095L109.263 62.2684C109.263 62.2684 109.425 62.4323 109.226 62.6334C109.226 62.6334 107.922 64.1012 107.156 64.6823C107.156 64.6823 108.549 67.1334 108.998 68.4447L109.764 77.1019C109.764 77.1019 114.765 66.4629 115.266 62.8421C115.266 62.8421 115.892 55.5408 115.266 51.9646C115.266 51.9646 117.822 53.8645 118.448 54.0954C118.448 54.0954 131.618 58.2378 131.964 58.2378C131.964 58.2378 135.043 58.2601 136.486 61.7171L140.059 76.8486ZM184.091 71.3279C182.905 68.5192 180.408 68.4968 180.408 68.4968C180.135 68.4968 169.411 65.1293 169.411 65.1293C168.895 64.9356 166.825 63.4008 166.825 63.4008C167.341 66.3064 166.825 72.2369 166.825 72.2369C166.406 75.1797 162.347 83.837 162.347 83.837L161.721 76.8039C161.353 75.7236 160.226 73.7418 160.226 73.7418C160.852 73.2725 161.905 72.0804 161.905 72.0804C162.067 71.9165 161.927 71.7675 161.927 71.7675L159.615 69.1971L165.389 63.8627C165.78 63.4232 165.713 62.626 165.713 62.626C165.433 60.9646 165.581 57.4108 165.581 57.4108C165.735 55.7494 166.133 54.0656 166.133 54.0656C167.429 55.1683 167.871 51.0483 167.871 51.0483C168.151 48.314 167.179 49.2825 167.179 49.2825C167.393 45.1402 167.179 43.4564 167.179 43.4564C166.074 39.3141 163.99 38.9043 163.99 38.9043C163.364 38.1295 161.08 37.146 161.08 37.146C159.88 36.5947 159.033 36.6245 158.841 36.6469C158.642 36.6245 157.81 36.5947 156.602 37.146C156.602 37.146 154.311 38.1295 153.693 38.9043C153.693 38.9043 151.615 39.329 150.503 43.4564C150.503 43.4564 150.297 45.1402 150.503 49.2825C150.503 49.2825 149.531 48.2991 149.811 51.0483C149.811 51.0483 150.253 55.1683 151.549 54.0656C151.549 54.0656 151.947 55.7494 152.102 57.4108C152.102 57.4108 152.242 60.972 151.969 62.626C151.969 62.626 151.895 63.4232 152.293 63.8627L158.068 69.1971L155.755 71.7675C155.755 71.7675 155.622 71.909 155.777 72.0804C155.777 72.0804 156.83 73.2725 157.464 73.7418C157.464 73.7418 156.329 75.731 155.954 76.8039L155.328 83.837C155.328 83.837 151.255 75.1797 150.849 72.2369C150.849 72.2369 150.349 66.2915 150.849 63.4008C150.849 63.4008 148.765 64.9505 148.264 65.1293C148.264 65.1293 145.126 66.1127 142.21 67.0142L144.684 77.5042L139.86 127.525C139.86 127.525 139.852 129.649 138.608 131.712C139.609 132.167 140.876 132.457 142.467 132.457L145.973 189.877C145.973 189.877 146.054 193.445 148.809 194.6C148.809 194.6 154.783 196.634 155.608 189.966L156.904 132.457H160.727L162.023 189.966C162.848 196.619 168.822 194.6 168.822 194.6C171.576 193.445 171.657 189.877 171.657 189.877L175.163 132.457C182.905 132.457 182.949 125.648 182.949 125.648L187 83.6358L184.091 71.3279ZM83.4832 69.3313L80.4339 56.4274L79.2333 51.3239C77.5023 47.2114 73.8564 47.189 73.8564 47.189C73.4439 47.189 57.7698 42.2644 57.7698 42.2644C57.0332 41.9887 53.9839 39.7313 53.9839 39.7313C54.7278 43.9705 53.9839 52.665 53.9839 52.665C53.3799 56.9787 47.4284 69.6442 47.4284 69.6442L46.5151 59.3404C45.97 57.761 44.3201 54.8628 44.3201 54.8628C45.2261 54.1699 46.7876 52.434 46.7876 52.434C47.016 52.1882 46.8171 51.987 46.8171 51.987L43.4363 48.2246L51.892 40.4167C52.4665 39.7685 52.3634 38.6063 52.3634 38.6063C51.9583 36.1775 52.1645 30.9772 52.1645 30.9772C52.4076 28.5484 52.9821 26.0824 52.9821 26.0824C54.8751 27.6916 55.5233 21.6494 55.5233 21.6494C55.9284 17.6486 54.5068 19.0865 54.5068 19.0865C54.8088 13.0295 54.5068 10.5709 54.5068 10.5709C52.8864 4.50635 49.8444 3.89542 49.8444 3.89542C48.931 2.76298 45.587 1.33253 45.587 1.33253C43.8119 0.520445 42.5892 0.580048 42.3019 0.594948C42.0147 0.580048 40.7846 0.520445 39.0095 1.33253C39.0095 1.33253 35.6655 2.77043 34.7522 3.89542C34.7522 3.89542 31.7102 4.50635 30.0897 10.5709C30.0897 10.5709 29.7877 13.0369 30.0897 19.0865C30.0897 19.0865 28.6681 17.6486 29.0733 21.6494C29.0733 21.6494 29.7214 27.6842 31.6144 26.0824C31.6144 26.0824 32.1889 28.5484 32.4246 30.9772C32.4246 30.9772 32.6235 36.1775 32.2257 38.6063C32.2257 38.6063 32.1153 39.7685 32.6972 40.4167L41.1455 48.2246L37.7647 51.987C37.7647 51.987 37.5658 52.1882 37.8015 52.434C37.8015 52.434 39.3557 54.1848 40.269 54.8628C40.269 54.8628 38.6191 57.761 38.0741 59.3404L37.1607 69.6442C37.1607 69.6442 31.2093 56.9787 30.5979 52.665C30.5979 52.665 29.8614 43.9779 30.5979 39.7313C30.5979 39.7313 27.5559 41.9887 26.812 42.2644C26.812 42.2644 11.1306 47.189 10.7328 47.189C10.7328 47.189 7.07209 47.2188 5.35589 51.3239C5.35589 51.3239 2.2034 60.3611 0.988068 69.294V69.3313L6.93214 130.841C6.93214 130.841 6.99843 140.802 18.3268 140.802L23.4533 224.826C23.4533 224.826 23.5785 230.056 27.6075 231.747C27.6075 231.747 36.3431 234.728 37.5585 224.975L39.4514 140.802H45.042L46.9349 224.975C48.1503 234.728 56.8859 231.747 56.8859 231.747C60.9149 230.064 61.0401 224.826 61.0401 224.826L66.1666 140.802C71.7056 140.802 74.5561 138.418 76.0219 135.981C77.5465 133.441 77.5686 130.833 77.5686 130.833L83.4832 69.3313Z"
                fill="#D7DA5E"
              />
            </svg>