<svg
              xmlns="http://www.w3.org/2000/svg"
              width="330"
              height="105"
              viewBox="0 0 330 105"
              fill="none"
            >
              <path
                d="M164.901 4.9304C106.196 4.9304 58.5996 20.0321 58.5996 38.6429C58.5996 57.2612 106.196 72.3629 164.901 72.3629C223.612 72.3629 271.194 57.2612 271.194 38.6429C271.201 20.0321 223.612 4.9304 164.901 4.9304ZM164.827 57.9168C115.227 57.9168 75.0324 46.2646 75.0324 31.9004C75.0324 17.5214 115.234 5.87659 164.827 5.87659C214.427 5.87659 254.629 17.5288 254.629 31.9004C254.629 46.2646 214.427 57.9168 164.827 57.9168ZM164.901 0.18457C74.2516 0.18457 0.771973 23.4965 0.771973 52.2397C0.771973 80.9978 74.2516 104.302 164.901 104.302C255.549 104.302 329.029 80.9903 329.029 52.2397C329.029 23.4965 255.549 0.18457 164.901 0.18457ZM164.79 82.0036C88.2021 82.0036 26.1171 64.0111 26.1171 41.8167C26.1171 19.6149 88.2021 1.62247 164.79 1.62247C241.378 1.62247 303.463 19.6149 303.463 41.8167C303.463 64.0037 241.378 82.0036 164.79 82.0036Z"
                fill="black"
              />
            </svg>